<mxfile host="app.diagrams.net" agent="Mozilla/5.0 (Macintosh; Intel Mac OS X 10_15_7) AppleWebKit/605.1.15 (KHTML, like Gecko) Version/18.3.1 Safari/605.1.15" version="26.1.3">
  <diagram name="Page-1" id="X5SDIrPviY2HViiR3utO">
    <mxGraphModel dx="1620" dy="1123" grid="0" gridSize="10" guides="1" tooltips="1" connect="1" arrows="1" fold="1" page="0" pageScale="1" pageWidth="827" pageHeight="1169" math="0" shadow="0">
      <root>
        <mxCell id="0" />
        <mxCell id="1" parent="0" />
        <mxCell id="MkuL2QFq_0FGuCoz57RF-3" value="" style="edgeStyle=none;curved=1;rounded=0;orthogonalLoop=1;jettySize=auto;html=1;fontSize=12;startSize=8;endSize=8;" edge="1" parent="1" source="MkuL2QFq_0FGuCoz57RF-1" target="MkuL2QFq_0FGuCoz57RF-2">
          <mxGeometry relative="1" as="geometry" />
        </mxCell>
        <mxCell id="MkuL2QFq_0FGuCoz57RF-1" value="&lt;b&gt;Stocklite&lt;/b&gt;" style="rounded=0;whiteSpace=wrap;html=1;" vertex="1" parent="1">
          <mxGeometry x="216" y="-69" width="120" height="60" as="geometry" />
        </mxCell>
        <mxCell id="MkuL2QFq_0FGuCoz57RF-5" value="" style="edgeStyle=none;curved=1;rounded=0;orthogonalLoop=1;jettySize=auto;html=1;fontSize=12;startSize=8;endSize=8;" edge="1" parent="1" source="MkuL2QFq_0FGuCoz57RF-2" target="MkuL2QFq_0FGuCoz57RF-4">
          <mxGeometry relative="1" as="geometry" />
        </mxCell>
        <mxCell id="MkuL2QFq_0FGuCoz57RF-2" value="&lt;b&gt;Load program&lt;/b&gt;" style="rounded=0;whiteSpace=wrap;html=1;" vertex="1" parent="1">
          <mxGeometry x="216" y="27" width="120" height="60" as="geometry" />
        </mxCell>
        <mxCell id="MkuL2QFq_0FGuCoz57RF-7" value="" style="edgeStyle=none;curved=1;rounded=0;orthogonalLoop=1;jettySize=auto;html=1;fontSize=12;startSize=8;endSize=8;" edge="1" parent="1" source="MkuL2QFq_0FGuCoz57RF-4" target="MkuL2QFq_0FGuCoz57RF-6">
          <mxGeometry relative="1" as="geometry" />
        </mxCell>
        <mxCell id="MkuL2QFq_0FGuCoz57RF-4" value="loading Page" style="whiteSpace=wrap;html=1;rounded=0;" vertex="1" parent="1">
          <mxGeometry x="216" y="129" width="120" height="60" as="geometry" />
        </mxCell>
        <mxCell id="MkuL2QFq_0FGuCoz57RF-9" value="" style="edgeStyle=none;curved=1;rounded=0;orthogonalLoop=1;jettySize=auto;html=1;fontSize=12;startSize=8;endSize=8;" edge="1" parent="1" source="MkuL2QFq_0FGuCoz57RF-6" target="MkuL2QFq_0FGuCoz57RF-8">
          <mxGeometry relative="1" as="geometry" />
        </mxCell>
        <mxCell id="MkuL2QFq_0FGuCoz57RF-11" value="" style="edgeStyle=none;curved=1;rounded=0;orthogonalLoop=1;jettySize=auto;html=1;fontSize=12;startSize=8;endSize=8;" edge="1" parent="1" source="MkuL2QFq_0FGuCoz57RF-6" target="MkuL2QFq_0FGuCoz57RF-10">
          <mxGeometry relative="1" as="geometry" />
        </mxCell>
        <mxCell id="MkuL2QFq_0FGuCoz57RF-6" value="Main Menu" style="whiteSpace=wrap;html=1;rounded=0;" vertex="1" parent="1">
          <mxGeometry x="216" y="224" width="120" height="60" as="geometry" />
        </mxCell>
        <mxCell id="MkuL2QFq_0FGuCoz57RF-8" value="Help Menu" style="whiteSpace=wrap;html=1;rounded=0;" vertex="1" parent="1">
          <mxGeometry x="-57" y="322" width="120" height="60" as="geometry" />
        </mxCell>
        <mxCell id="MkuL2QFq_0FGuCoz57RF-13" value="" style="edgeStyle=none;curved=1;rounded=0;orthogonalLoop=1;jettySize=auto;html=1;fontSize=12;startSize=8;endSize=8;" edge="1" parent="1" source="MkuL2QFq_0FGuCoz57RF-10" target="MkuL2QFq_0FGuCoz57RF-12">
          <mxGeometry relative="1" as="geometry" />
        </mxCell>
        <mxCell id="MkuL2QFq_0FGuCoz57RF-14" value="" style="edgeStyle=none;curved=1;rounded=0;orthogonalLoop=1;jettySize=auto;html=1;fontSize=12;startSize=8;endSize=8;" edge="1" parent="1" source="MkuL2QFq_0FGuCoz57RF-10" target="MkuL2QFq_0FGuCoz57RF-12">
          <mxGeometry relative="1" as="geometry" />
        </mxCell>
        <mxCell id="MkuL2QFq_0FGuCoz57RF-16" value="" style="edgeStyle=none;curved=1;rounded=0;orthogonalLoop=1;jettySize=auto;html=1;fontSize=12;startSize=8;endSize=8;" edge="1" parent="1" source="MkuL2QFq_0FGuCoz57RF-10" target="MkuL2QFq_0FGuCoz57RF-15">
          <mxGeometry relative="1" as="geometry" />
        </mxCell>
        <mxCell id="MkuL2QFq_0FGuCoz57RF-18" value="" style="edgeStyle=none;curved=1;rounded=0;orthogonalLoop=1;jettySize=auto;html=1;fontSize=12;startSize=8;endSize=8;" edge="1" parent="1" source="MkuL2QFq_0FGuCoz57RF-10" target="MkuL2QFq_0FGuCoz57RF-17">
          <mxGeometry relative="1" as="geometry" />
        </mxCell>
        <mxCell id="MkuL2QFq_0FGuCoz57RF-20" value="" style="edgeStyle=none;curved=1;rounded=0;orthogonalLoop=1;jettySize=auto;html=1;fontSize=12;startSize=8;endSize=8;" edge="1" parent="1" source="MkuL2QFq_0FGuCoz57RF-10" target="MkuL2QFq_0FGuCoz57RF-19">
          <mxGeometry relative="1" as="geometry" />
        </mxCell>
        <mxCell id="MkuL2QFq_0FGuCoz57RF-22" value="" style="edgeStyle=none;curved=1;rounded=0;orthogonalLoop=1;jettySize=auto;html=1;fontSize=12;startSize=8;endSize=8;" edge="1" parent="1" source="MkuL2QFq_0FGuCoz57RF-10" target="MkuL2QFq_0FGuCoz57RF-21">
          <mxGeometry relative="1" as="geometry" />
        </mxCell>
        <mxCell id="MkuL2QFq_0FGuCoz57RF-10" value="Trading Panel" style="whiteSpace=wrap;html=1;rounded=0;" vertex="1" parent="1">
          <mxGeometry x="482" y="322" width="120" height="60" as="geometry" />
        </mxCell>
        <mxCell id="MkuL2QFq_0FGuCoz57RF-12" value="Buy" style="whiteSpace=wrap;html=1;rounded=0;" vertex="1" parent="1">
          <mxGeometry x="709" y="540" width="120" height="60" as="geometry" />
        </mxCell>
        <mxCell id="MkuL2QFq_0FGuCoz57RF-15" value="Sell" style="whiteSpace=wrap;html=1;rounded=0;" vertex="1" parent="1">
          <mxGeometry x="542" y="665" width="120" height="60" as="geometry" />
        </mxCell>
        <mxCell id="MkuL2QFq_0FGuCoz57RF-29" value="" style="edgeStyle=none;curved=1;rounded=0;orthogonalLoop=1;jettySize=auto;html=1;fontSize=12;startSize=8;endSize=8;" edge="1" parent="1" source="MkuL2QFq_0FGuCoz57RF-17" target="MkuL2QFq_0FGuCoz57RF-28">
          <mxGeometry relative="1" as="geometry" />
        </mxCell>
        <mxCell id="MkuL2QFq_0FGuCoz57RF-31" value="" style="edgeStyle=none;curved=1;rounded=0;orthogonalLoop=1;jettySize=auto;html=1;fontSize=12;startSize=8;endSize=8;" edge="1" parent="1" source="MkuL2QFq_0FGuCoz57RF-17" target="MkuL2QFq_0FGuCoz57RF-30">
          <mxGeometry relative="1" as="geometry" />
        </mxCell>
        <mxCell id="MkuL2QFq_0FGuCoz57RF-17" value="Trading Chart" style="whiteSpace=wrap;html=1;rounded=0;" vertex="1" parent="1">
          <mxGeometry x="216" y="382" width="120" height="60" as="geometry" />
        </mxCell>
        <mxCell id="MkuL2QFq_0FGuCoz57RF-19" value="Pie chart" style="whiteSpace=wrap;html=1;rounded=0;" vertex="1" parent="1">
          <mxGeometry x="743" y="224" width="120" height="60" as="geometry" />
        </mxCell>
        <mxCell id="MkuL2QFq_0FGuCoz57RF-21" value="Timer" style="whiteSpace=wrap;html=1;rounded=0;" vertex="1" parent="1">
          <mxGeometry x="305" y="663" width="120" height="60" as="geometry" />
        </mxCell>
        <mxCell id="MkuL2QFq_0FGuCoz57RF-28" value="API Data" style="ellipse;whiteSpace=wrap;html=1;rounded=0;" vertex="1" parent="1">
          <mxGeometry x="157" y="472" width="80" height="80" as="geometry" />
        </mxCell>
        <mxCell id="MkuL2QFq_0FGuCoz57RF-30" value="Sizing" style="ellipse;whiteSpace=wrap;html=1;rounded=0;" vertex="1" parent="1">
          <mxGeometry x="325" y="472" width="80" height="80" as="geometry" />
        </mxCell>
      </root>
    </mxGraphModel>
  </diagram>
</mxfile>
